<svg width="25" height="35" viewBox="20 15 25 35" xmlns="http://www.w3.org/2000/svg"><defs><linearGradient x1="0%" y1="49.999%" x2="100%" y2="49.999%" id="a"><stop stop-color="#FFC400" offset="0%"/><stop stop-color="#FECD00" offset="13.695%"/><stop stop-color="#FED400" offset="36.528%"/><stop stop-color="#FED600" offset="100%"/></linearGradient><linearGradient x1="-92.618%" y1="50.001%" x2="100%" y2="50.001%" id="b"><stop stop-color="#FF0" stop-opacity=".7" offset="0%"/><stop stop-color="#FFF600" stop-opacity=".66" offset="13.194%"/><stop stop-color="#FEEF00" stop-opacity=".626" offset="31.385%"/><stop stop-color="#FEEA00" stop-opacity=".606" offset="54.652%"/><stop stop-color="#FEE900" stop-opacity=".6" offset="100%"/></linearGradient></defs><g fill-rule="nonzero" fill="none"><path fill="#FEE900" d="m20.558 26.9 8.205 5.101 8.859-5.507v-4.3l-17.064-5.297z"/><path fill="#FFC400" d="M20.558 16.897V37.1l17.064-10.607v-4.3z"/><path fill="url(#a)" opacity=".75" d="M.133 11.366v10.066l8.205-5.1-8.205-5.1z" transform="translate(20.426 15.66)"/><path fill="#FFC400" d="M20.558 26.9v20.104l17.064-5.196v-4.3z"/><path fill="#FFE082" d="M20.483 38.732v1.841l17.139 1.512V37.22zm-.057-15.251v1.84l17.116 1.512v-4.864z"/><path fill="#FEE900" d="m20.558 16.897 17.064 5.298z"/><path fill="url(#b)" d="m8.338 16.342 8.858-5.507-8.858 5.507z" transform="translate(20.426 15.66)"/><path d="M35.672 39.653c0 .512.206 1.003.571 1.365.366.362.862.566 1.379.566v-3.862a1.94 1.94 0 0 0-1.95 1.93Zm0-15.252c0 .512.206 1.004.571 1.366.366.362.862.565 1.379.565V22.47a1.94 1.94 0 0 0-1.95 1.931Z" fill="#FFF"/><path d="M43.745 36.321a7.22 7.22 0 0 0-1.028-2.17 6.88 6.88 0 0 0-1.74-1.713 7.894 7.894 0 0 0-2.475-1.108c1.567-.657 2.757-1.582 3.571-2.776a6.99 6.99 0 0 0 1.22-4.03 9.254 9.254 0 0 0-.78-3.95 7.032 7.032 0 0 0-2.248-2.742 10.159 10.159 0 0 0-3.593-1.601 19.99 19.99 0 0 0-4.792-.526H20.603v1.258l16.702 5.154c.19.06.317.235.317.432v3.693c0 .164-.09.316-.234.396l-8.558 5.363 8.558 5.363c.144.08.234.232.234.396v3.694c0 .196-.128.37-.317.431L20.603 47.04v1.258h12.068a17.391 17.391 0 0 0 4.78-.604 10.016 10.016 0 0 0 3.594-1.802 7.79 7.79 0 0 0 2.26-2.977c.543-1.31.809-2.715.78-4.13a8.918 8.918 0 0 0-.34-2.463Z" stroke="#FF6D00" stroke-width=".4" fill="#FF6D00"/></g></svg>