<svg width="64" height="64" viewBox="25 5 13 54" fill="none" xmlns="http://www.w3.org/2000/svg"><g clip-path="url(#a)"><path opacity=".2" d="M32 39.477c7.502 0 13.585-6.082 13.585-13.584 0-7.503-6.083-13.585-13.585-13.585-7.503 0-13.585 6.082-13.585 13.585 0 7.502 6.082 13.584 13.585 13.584Z" fill="url(#b)"/><path opacity=".14" fill-rule="evenodd" clip-rule="evenodd" d="M32 42.851c9.366 0 16.959-7.592 16.959-16.958S41.366 8.934 32 8.934s-16.959 7.593-16.959 16.959S22.634 42.85 32 42.85Zm0-3.374c7.503 0 13.584-6.082 13.584-13.584 0-7.503-6.081-13.585-13.584-13.585-7.503 0-13.585 6.082-13.585 13.585 0 7.502 6.082 13.584 13.585 13.584Z" fill="#5E6294"/><path d="M24.237 33.01a5.24 5.24 0 0 1-.355-9.448 8.209 8.209 0 1 1 16.413 0 5.24 5.24 0 0 1-.355 9.448l-.303 8.06c.087 2.086.716 2.258 3.082 2.91l.735.203c-1.95.446-3.174.507-3.944.274l-.14 3.721c-.313 3.518-.282 3.526 2.092 4.144.323.084.69.179 1.104.296-5.112 1.168-5.179-1.147-5.239-3.24a11.287 11.287 0 0 0-.075-1.2h-.19l-.034.411v.003c-.24 2.929-.32 3.934.139 4.377.24.231.628.31 1.219.429.618.124 1.457.293 2.582.73-6.028.839-6.024-1.076-6.016-4.336.002-.507.003-1.047-.018-1.614h-.181c-.28 6.284.045 6.364 2.182 6.888.581.143 1.296.318 2.168.66-6.142.682-6.388-1.064-6.767-3.752a23.507 23.507 0 0 0-.247-1.51 23.58 23.58 0 0 0-.247 1.51c-.38 2.688-.625 4.434-6.767 3.751.872-.341 1.587-.516 2.167-.659 2.138-.524 2.462-.604 2.183-6.888h-.18a38.997 38.997 0 0 0-.02 1.614c.008 3.26.013 5.175-6.015 4.335 1.124-.436 1.964-.605 2.581-.73.591-.118.98-.197 1.22-.428.46-.443.378-1.448.14-4.377l-.035-.413h-.19c-.052.37-.063.78-.075 1.198-.06 2.094-.127 4.41-5.239 3.24.414-.116.78-.211 1.103-.295 2.374-.618 2.406-.626 2.093-4.144l-.14-3.72c-.77.232-1.995.17-3.944-.275.262-.074.506-.141.735-.204 2.366-.65 2.995-.823 3.082-2.91l-.304-8.059Z" fill="#EF7B4D"/><path d="M26.051 32.197a3.907 3.907 0 1 0 0-7.814 3.907 3.907 0 0 0 0 7.814Z" fill="#FEFEFE"/><path d="M25.962 29a1.332 1.332 0 1 0 0-2.663 1.332 1.332 0 0 0 0 2.663Z" fill="#000"/><path d="M37.594 32.197a3.907 3.907 0 1 0 0-7.814 3.907 3.907 0 0 0 0 7.814Z" fill="#FEFEFE"/><path d="M37.505 29a1.332 1.332 0 1 0 0-2.663 1.332 1.332 0 0 0 0 2.663Z" fill="#000"/><path d="M29.07 35.57s1.42 1.421 3.019 1.421c1.598 0 3.019-1.42 3.019-1.42v1.775a3.019 3.019 0 0 1-6.038 0v-1.775Z" fill="#FAFAFA"/><path d="M29.07 36.991s1.42 1.42 3.019 1.42c1.598 0 3.019-1.42 3.019-1.42v.355a3.019 3.019 0 0 1-6.038 0v-.355Z" fill="#202124"/><path opacity=".16" d="M20.72 34.387a14.054 14.054 0 0 1-2.83-8.423 14.108 14.108 0 0 1 6.698-12.071" stroke="#5E6294" stroke-width="4.306" stroke-linecap="round"/><path opacity=".45" d="M26.406 13.374a.71.71 0 1 0 0-1.421.71.71 0 0 0 0 1.42Z" fill="#5E6294"/><path d="M14.331 21.897h-.177a.71.71 0 0 0-.71.71v6.748c0 .393.317.71.71.71h.177a.71.71 0 0 0 .71-.71v-6.747a.71.71 0 0 0-.71-.71Zm35.515 0h-.177a.71.71 0 0 0-.71.71v6.748c0 .393.318.71.71.71h.178a.71.71 0 0 0 .71-.71v-6.747a.71.71 0 0 0-.71-.71Z" fill="#5E6294"/><path fill-rule="evenodd" clip-rule="evenodd" d="M32 43.739c9.856 0 17.846-7.99 17.846-17.846 0-9.857-7.99-17.847-17.846-17.847s-17.846 7.99-17.846 17.847c0 9.856 7.99 17.846 17.846 17.846Zm0-.888c9.366 0 16.959-7.592 16.959-16.958S41.366 8.934 32 8.934s-16.959 7.593-16.959 16.959S22.634 42.85 32 42.85Z" fill="#5E6294" fill-opacity=".2"/><path d="M30.215 19.161c-.179.835-.904 1.388-1.62 1.235-.716-.153-1.176-.821-.997-1.657.178-.835 1.27-1.722 1.986-1.569.716.153.81 1.156.63 1.991Z" fill="#F77F4F"/></g><defs><linearGradient id="b" x1="32" y1="12.308" x2="39.799" y2="39.109" gradientUnits="userSpaceOnUse"><stop stop-color="#5E6294"/><stop offset="1" stop-color="#878BB2"/></linearGradient><clipPath id="a"><path fill="#fff" transform="translate(13.443 8)" d="M0 0h37.113v48H0z"/></clipPath></defs></svg>