<svg width="309" height="309" fill="none" xmlns="http://www.w3.org/2000/svg"><path d="M134.681 12.428c.003-.513 4.444-3.501 9.869-6.64C149.976 2.649 154.977.045 155.663 0c.687-.045 7.658 3.59 15.491 8.078a9614.78 9614.78 0 0 0 25.857 14.753c6.389 3.627 30.11 17.173 52.713 30.101L290.82 76.44l-.49 155.757-9.994 5.847c-5.497 3.216-10.555 5.868-11.243 5.894-.989.036-1.251-16.054-1.257-77.225l-.009-77.27-4.738-2.578c-23.465-12.763-128.412-73.6-128.408-74.436Z" fill="#D13195"/><path d="m89.738 38.158 10.353-6.098c5.693-3.354 10.692-6.107 11.107-6.117 1.5-.036 132.193 75.154 133.417 76.758.987 1.293 1.201 17.95.999 78.073l-.256 76.428-9.993 5.848c-5.497 3.216-10.329 5.867-10.738 5.893-.408.025-.858-34.672-.999-77.104l-.256-77.15-60.962-34.943C128.882 60.53 98.814 43.31 95.594 41.482l-5.856-3.324Z" fill="#F2BA41"/><path d="M56.133 56.845c-5.65 3.197-10.68 6.221-11.178 6.72-.543.543.988 1.89 3.81 3.355 2.593 1.345 9.436 5.197 15.207 8.558 5.772 3.361 33.992 19.564 62.711 36.005l52.217 29.893v76.81c0 42.245.338 76.799.75 76.786.411-.012 5.246-2.621 10.743-5.798l9.994-5.776V127.719l-61.462-35.162a123519 123519 0 0 1-66.99-38.342l-5.53-3.182-10.273 5.812Z" fill="#4DAECF"/><path fill-rule="evenodd" clip-rule="evenodd" d="M20 154.348v77.41l67.528 38.621C124.668 291.62 155.25 309 155.486 309c.235 0 .428-34.829.428-77.399v-77.4L88.391 115.57C51.253 94.323 20.673 76.939 20.434 76.939c-.24 0-.434 34.834-.434 77.409Zm55.215-19.58c-.962-.823-8.205-5.169-16.095-9.658-7.89-4.489-14.75-8.161-15.24-8.161-.515 0-.895 21.594-.895 50.8v50.799l15.279 8.666c8.403 4.767 16.048 8.963 16.99 9.324 1.6.615 1.71-2.583 1.71-49.808 0-46.826-.126-50.574-1.749-51.962Zm45.514 25.761 12.183 6.934.008 18.755c.005 10.315-.275 18.755-.621 18.755-.347 0-7.767-4.086-16.489-9.078l-15.86-9.076v-38.032l4.297 2.403a4071.6 4071.6 0 0 1 16.482 9.339Zm12.2 71.6-15.86-9.077c-8.723-4.992-16.153-9.077-16.512-9.077-.359 0-.529 8.425-.38 18.723l.272 18.722 9.994 5.634a2546.992 2546.992 0 0 1 16.24 9.231l6.246 3.596v-37.752Z" fill="#313E44"/></svg>