<svg width="36" height="36" fill="none" xmlns="http://www.w3.org/2000/svg"><path d="M11.989 34.541a1.463 1.463 0 0 0 1.573 1.455c7.62-.546 14.818-5.939 17.115-14.362.121-.484.485-.727.969-.727a.944.944 0 0 1 .906.97c0 1.878-2.414 6.787-5.867 9.635a1.528 1.528 0 0 0-.425 1.755 1.42 1.42 0 0 0 1.333.85c.302 0 .787-.181 1.392-.727C31.399 31.208 36 25.088 36 18.36 36 8.5 28.375 0 17.734 0 8.24 0 .014 7.757.014 16.726c0 5.938 4.718 10.422 10.946 10.422 4.78 0 9.194-3.393 10.404-8.06.12-.484.483-.727.967-.727a.946.946 0 0 1 .908.97c0 2.121-3.992 9.519-12.097 9.519-1.935 0-4.354-.546-6.048-1.516a1.83 1.83 0 0 0-.726-.182 1.399 1.399 0 0 0-1.451 1.455 1.452 1.452 0 0 0 .726 1.212c2.238 1.278 4.899 1.939 7.62 1.939 6.774 0 12.943-4.606 14.758-11.393.12-.484.484-.727.967-.727a.945.945 0 0 1 .907.97c0 2.788-4.959 11.756-14.515 12.484a1.503 1.503 0 0 0-1.391 1.449Z" fill="#4F43DD"/><path d="M21.458 11.333a6.892 6.892 0 0 1 3.692 1.04c.112-.613.174-1.234.185-1.857 0-2.877-2.193-5.454-4.863-5.454-2.076 0-3.374 1.72-3.374 3.846a4.785 4.785 0 0 0 1.136 3.136 7.31 7.31 0 0 1 3.224-.711Z" fill="#fff"/><path d="M27.714 21.755c.37-1.267.534-2.147.534-2.718a.962.962 0 0 0-.957-.918 1.031 1.031 0 0 0-.986.8c-.1.416-.317 1.544-.53 2.26a14.3 14.3 0 0 0 .242-.816c.12-.486.484-.728.967-.728a.945.945 0 0 1 .907.97 4.47 4.47 0 0 1-.186 1.151l.009-.001Zm5.141-1.325a.963.963 0 0 0-.956-.917 1.03 1.03 0 0 0-.984.8c-.103.426-.323 1.571-.538 2.286h.01c.104-.319.203-.64.283-.97.121-.485.485-.727.969-.727a.943.943 0 0 1 .906.97 3.948 3.948 0 0 1-.124.893c.301-1.057.434-1.821.434-2.334Z" fill="#352D8E"/><path d="M21.458 11.333a7.18 7.18 0 0 1 1.918.257 2.415 2.415 0 0 0-3.162-3.515l.994 1.637-1.862-.806a2.432 2.432 0 0 0 .085 2.691 7.666 7.666 0 0 1 2.027-.264Z" fill="#163B36"/><path d="M7.115 21.866a1.42 1.42 0 1 0 0-2.841 1.42 1.42 0 0 0 0 2.84Zm0-5.683a1.42 1.42 0 1 0 0-2.84 1.42 1.42 0 0 0 0 2.84Zm-2.84 2.841a1.42 1.42 0 1 0 0-2.84 1.42 1.42 0 0 0 0 2.84Z" fill="#352D8E"/><path d="M10.665 27.145h.284c4.779 0 9.194-3.393 10.404-8.06.12-.484.483-.727.967-.727a.945.945 0 0 1 .907.97 4.072 4.072 0 0 1-.33 1.44c.034-.053.064-.109.089-.167.36-.821.545-1.708.545-2.605 0-1.394-.968-2.303-2.358-2.303-2.425 0-2.91 2.117-3.933 4.38-1.06 2.35-3.009 4.891-7.923 4.891-5.105 0-10.35-3.576-9.071-10.847a6.46 6.46 0 0 0 .038-.247c-.187.94-.283 1.895-.284 2.853.014 5.853 4.586 10.286 10.665 10.422Z" fill="#352D8E"/></svg>