<svg xmlns="http://www.w3.org/2000/svg" xmlns:xlink="http://www.w3.org/1999/xlink" width="43" height="49.679" viewBox="0 0 43 49.679">
  <defs>
    <clipPath id="clip-path">
      <rect id="Rectangle_2063" data-name="Rectangle 2063" width="43" height="49.679" fill="none"/>
    </clipPath>
  </defs>
  <g id="Group_2690" data-name="Group 2690" transform="translate(0 0)">
    <g id="Group_2631" data-name="Group 2631" transform="translate(0 0)" clip-path="url(#clip-path)">
      <path id="Path_8099" data-name="Path 8099" d="M9.195,14.642,22.306,7.077a.419.419,0,0,0,.209-.362l0-4.537A2.171,2.171,0,0,0,21.7.436,2.071,2.071,0,0,0,19.391.282L1.05,10.865a2.085,2.085,0,0,0-1.042,1.8L0,36.57a2.174,2.174,0,0,0,.81,1.742,2.072,2.072,0,0,0,2.317.155l3.884-2.241a.421.421,0,0,0,.209-.362l.005-17.812a3.936,3.936,0,0,1,1.969-3.409" transform="translate(0 0)" fill="#ffc11e"/>
      <path id="Path_8100" data-name="Path 8100" d="M44.355,13.343a2.065,2.065,0,0,0-2.085,0L23.93,23.925a2.089,2.089,0,0,0-1.043,1.8L22.88,49.721a2.085,2.085,0,0,0,3.126,1.806L44.346,40.944a2.087,2.087,0,0,0,1.043-1.8L45.4,15.148a2.063,2.063,0,0,0-1.042-1.805" transform="translate(-3.731 -2.13)" fill="#ef1161"/>
      <path id="Path_8101" data-name="Path 8101" d="M21.04,21.239l12.1-6.983a.419.419,0,0,0,.209-.362l0-5.284a2.172,2.172,0,0,0-.812-1.742,2.071,2.071,0,0,0-2.314-.153l-5.021,2.9L11.888,17.3a2.085,2.085,0,0,0-1.043,1.8L10.84,37.154l0,5.847a2.174,2.174,0,0,0,.81,1.742,2.07,2.07,0,0,0,2.316.154l4.893-2.823a.417.417,0,0,0,.209-.362l.005-17.064a3.936,3.936,0,0,1,1.969-3.409" transform="translate(-1.767 -1.049)" fill="#fc6e6b"/>
    </g>
  </g>
</svg>
