<svg width="200" height="200" fill="none" xmlns="http://www.w3.org/2000/svg"><path fill-rule="evenodd" clip-rule="evenodd" d="M53.574 36.494a14.591 14.591 0 0 1 15.28 16.583 14.593 14.593 0 0 1-29.02-1.137 14.55 14.55 0 0 1 13.74-15.446Zm27.523-11.72a7.901 7.901 0 0 1 8.397 7.5 7.993 7.993 0 1 1-8.397-7.5Zm102.686 43.151a7.99 7.99 0 0 1 8.398 9.07 7.995 7.995 0 0 1-10.539 6.46 7.998 7.998 0 0 1-5.357-7.088 8.038 8.038 0 0 1 7.498-8.442ZM11.638 92.263A12.034 12.034 0 1 1 .277 104.97a11.992 11.992 0 0 1 11.36-12.708Zm30.082 27.391a7.987 7.987 0 0 1 7.67 4.484 7.995 7.995 0 0 1-5.172 11.227 7.997 7.997 0 0 1-9.996-7.27 8.038 8.038 0 0 1 7.498-8.441Zm101.115 32.733a12.485 12.485 0 0 1 12.505 9.307 12.48 12.48 0 0 1-6.325 14.248 12.479 12.479 0 0 1-18.226-10.752 12.483 12.483 0 0 1 2.527-7.864 43.115 43.115 0 0 0-7.588-15.671h-1.527a15.4 15.4 0 0 1-16.164-14.413 15.634 15.634 0 0 1 1.392-7.364 51.686 51.686 0 0 0-15.894-14.009 15.385 15.385 0 0 1-5.523 1.347 15.58 15.58 0 0 1-15.9-20.123 15.581 15.581 0 0 1 24.452-7.73 15.581 15.581 0 0 1 4.918 18.064 47.852 47.852 0 0 0 14.727 15.401 15.426 15.426 0 0 1 6.241-1.751 15.18 15.18 0 0 1 8.98 2.29 55.45 55.45 0 0 0 18.948-16.883 6.003 6.003 0 0 1 0-1.257 11.672 11.672 0 0 1 15.043-11.833 11.673 11.673 0 0 1 5.938 18.195 11.675 11.675 0 0 1-13.393 3.92 67.932 67.932 0 0 0-19.936 15.536 16.68 16.68 0 0 1 .943 4.491 15.58 15.58 0 0 1-4.49 11.809 41.037 41.037 0 0 0 8.352 15.042Zm-67.08-36.73a13.024 13.024 0 0 1 12.498 7.307 13.02 13.02 0 1 1-24.711 6.433c-.099-1.689.13-3.381.673-4.984a25.052 25.052 0 0 0-12.841-13.47 14.505 14.505 0 0 1-19.58-12.86 14.504 14.504 0 0 1 28.964-1.554 14.89 14.89 0 0 1-1.033 6.331 26.943 26.943 0 0 0 12.752 13.112h.224c1.007-.195 2.028-.3 3.053-.315Zm85.309 4.49c1.398-.073 2.798.11 4.131.539a27.884 27.884 0 0 0 16.702-13.83 8.984 8.984 0 0 1 10.558-8.827 8.978 8.978 0 0 1 6.852 11.936 8.973 8.973 0 0 1-7.936 5.872c-.672.067-1.348.067-2.02 0a35.924 35.924 0 0 0-16.838 13.964c.022.299.022.599 0 .898a11.095 11.095 0 0 1-6.272 10.611 11.086 11.086 0 0 1-12.202-1.739 11.091 11.091 0 0 1 6.8-19.334l.225-.09ZM90.526 48.842c1.738-.098 3.475.21 5.074.898a23.527 23.527 0 0 0 13.47-9.34 10.398 10.398 0 0 1-.225-2.02 14.46 14.46 0 0 1 24.007-11.793 14.454 14.454 0 0 1 4.074 15.576 14.457 14.457 0 0 1-12.86 9.688c-2.91.237-5.824-.42-8.351-1.886a19.575 19.575 0 0 0-13.47 9.474 11.138 11.138 0 0 1-6.367 10.592 11.134 11.134 0 0 1-11.421-18.99 11.135 11.135 0 0 1 6.07-2.199Zm67.844-3.682a11.242 11.242 0 0 1 9.01 18.719 11.242 11.242 0 0 1-7.753 3.732 11.536 11.536 0 0 1-5.118-.898 24.923 24.923 0 0 0-14.683 10.193c.137.651.227 1.311.27 1.976a14.284 14.284 0 0 1-8.066 13.65 14.28 14.28 0 1 1-7.021-27.121 14.144 14.144 0 0 1 8.172 2.02 30.08 30.08 0 0 0 14.682-10.282A11.186 11.186 0 0 1 158.37 45.16ZM20.438 55.578a12.032 12.032 0 0 1 9.867 19.953 12.033 12.033 0 1 1-9.867-19.954Z" fill="#F0651B"/></svg>