<svg width="163" height="56" fill="none" xmlns="http://www.w3.org/2000/svg"><path d="M28.87 7.046v38.817a3.589 3.589 0 0 1-1.022 2.496 3.465 3.465 0 0 1-2.452 1.043h-14.9a3.465 3.465 0 0 1-2.466-1.035A3.588 3.588 0 0 1 7 45.863v-21.09a3.59 3.59 0 0 1 1.03-2.504 3.465 3.465 0 0 1 2.465-1.036h11.717M156.3 49.402h-11.017m10.743-27.876h-21.852M145.336 7.05v42.352M72.275 7.683H59.05c-2.382 0-4.313 1.965-4.313 4.389v32.735c0 2.424 1.93 4.39 4.313 4.39h13.226c2.382 0 4.313-1.966 4.313-4.39V12.072c0-2.424-1.93-4.389-4.313-4.389Zm47.311 41.719H99.418M110.344 7.05v42.352M109.884 7h-11.09" stroke="#29E3C1" stroke-width="12.66" stroke-linecap="round" stroke-linejoin="round"/></svg>