<svg width="200" height="200" fill="none" xmlns="http://www.w3.org/2000/svg"><g clip-path="url(#a)"><path d="m55.644 68.31 4.435 110.445 79.777-101.812a7.36 7.36 0 0 1 4.942-2.77 7.346 7.346 0 0 1 5.443 1.57L200 115.68l-16.226-70.972L55.644 68.31Z" fill="#4279F4"/><path d="M62.837 199.016h70.767l-43.453-34.864-27.314 34.864Z" fill="#0028AA"/><path d="m146.812 91.86-47.596 60.728 50.711 40.684 48.104-60.317-51.219-41.095Z" fill="#014BD1"/><path d="m42.295 57.656.011-.01L84.158 5.16 16.67 37.666 0 110.693l42.295-53.037Z" fill="#BEDCFF"/><path d="m.93 133.106 44.827 56.207-4.273-107.07L.93 133.106Z" fill="#6CA1FF"/><path d="M170.75 32.16 106.215 1.082 66.05 51.447l104.7-19.287Z" fill="#A1C3FF"/></g><defs><clipPath id="a"><path fill="#fff" d="M0 0h200v200H0z"/></clipPath></defs></svg>