<svg width="47" height="30" viewBox="0 0 47 30" fill="none" xmlns="http://www.w3.org/2000/svg">
                            <path fill-rule="evenodd" clip-rule="evenodd" d="M43.6947 26.4321C44.5656 24.3831 45.0266 21.9243 45.4364 19.5679C45.5388 18.902 45.6925 18.2361 45.795 17.6214C45.9999 16.5457 46.1023 15.8285 46.0511 15.0601C45.9999 14.2918 45.3339 13.4209 44.4119 13.4209C43.2337 13.3697 42.619 13.9332 42.3629 15.1114L41.9531 17.2116C41.6457 18.8508 41.3384 20.4388 41.031 22.078C41.031 22.1292 41.031 22.2316 40.9798 22.3341C40.7749 23.5122 40.6212 24.1782 40.3139 24.5368C40.2627 24.588 39.8529 25.049 39.2382 24.9466C38.9308 24.8953 38.521 24.6904 38.2137 23.9733C38.1624 23.461 38.0088 22.539 37.9063 22.0267C37.6502 20.7461 37.3941 19.4143 37.1379 18.1336C36.5745 15.3163 36.011 12.4477 35.3451 9.57907C34.8328 7.37639 34.1157 5.07127 33.2448 2.81737C32.4765 0.819599 31.4007 0 29.7615 0C27.7638 0 26.7905 1.28062 25.9709 2.81737C24.844 5.02004 24.2293 7.53007 23.6658 10.3474C23.1535 12.7038 22.6925 15.1626 22.2315 17.4677C21.9754 18.6971 21.7705 19.8753 21.5143 21.1047C21.5143 21.2071 20.9509 23.6659 20.8996 23.8708C20.6435 24.5367 20.2337 24.8953 19.7727 24.8953C19.0555 24.8953 18.697 24.0245 18.6457 23.7684C18.6457 23.7172 18.4408 23.0512 18.3896 22.9488C18.2872 22.6414 18.1847 22.3341 18.1335 22.0267C17.8774 20.6949 17.6212 19.363 17.3139 18.0312C16.7504 15.2138 16.1869 12.294 15.521 9.47661C15.0088 7.22272 14.2916 5.02004 13.4208 2.76615C12.7036 0.973274 11.3718 0.30735 10.1936 0.256125C10.1936 0.256125 7.52992 0.153675 6.30052 2.81737C5.27602 4.91759 4.50765 7.32517 3.84173 10.3987C3.43193 12.294 3.1758 13.6771 3.07335 15.0089C3.02213 15.8285 3.53438 16.6481 4.25152 16.9042C4.815 17.1091 5.37847 17.0579 5.8395 16.8018C6.2493 16.5457 6.55665 16.0846 6.71032 15.5212C7.01767 14.0869 7.2738 12.6013 7.52992 11.2183C7.6836 10.5011 8.45197 6.71047 8.60565 6.24944C8.75932 5.78842 9.06667 4.7127 9.83504 4.7127C9.83504 4.7127 9.83504 4.7127 9.88627 4.7127C10.6034 4.76392 10.9108 5.68597 11.1157 6.55679C11.2181 6.96659 11.423 7.99109 11.5767 8.91314C11.6791 9.37417 11.7816 9.83519 11.8328 10.1425C12.1402 11.5768 12.3963 13.0111 12.7036 14.3942C12.8573 15.2138 13.0622 15.9822 13.2159 16.8018C13.7794 19.363 14.3428 22.0267 15.0088 24.588C15.4186 26.0735 16.1357 27.4053 16.648 28.2249C17.2627 29.2494 18.2872 29.8129 19.3629 29.8641C21.1558 29.9154 22.7437 28.6347 23.5633 26.5345C24.6903 23.6659 25.305 20.5412 25.9197 17.4677C25.9197 17.4677 27.4052 9.83519 27.7125 8.45212C27.7638 8.09354 28.2248 6.24944 28.3272 5.94209C28.737 4.7127 29.3005 4.61025 29.5567 4.61025H29.6079C30.3762 4.61025 30.8885 5.73719 31.5544 9.11804L31.6056 9.32294C31.9642 10.9109 32.2716 12.5501 32.5789 14.1381C33.1424 16.9042 33.7059 19.7216 34.3206 22.4878C34.8328 24.8953 35.4987 26.5345 36.472 27.9176C37.8039 29.8129 39.648 30.1715 41.5945 28.9933C42.4653 28.4811 43.2337 27.5078 43.6947 26.4321Z" fill="#151928" />
                            <path fill-rule="evenodd" clip-rule="evenodd" d="M2.30512 24.9978C1.0245 25.049 0 26.0735 0 27.3542C0 27.9688 0.256126 28.5323 0.71715 28.9933C1.17817 29.4544 1.74165 29.7105 2.35635 29.7105C2.91982 29.7105 3.53452 29.4031 3.94432 28.9421C4.35412 28.4811 4.61025 27.9176 4.61025 27.3542C4.61025 26.0735 3.53452 24.9978 2.30512 24.9978Z" fill="#151928" />
                        </svg>