<svg width="200" height="200" fill="none" xmlns="http://www.w3.org/2000/svg"><path d="M20.434 90.721s18.083-26.68 54.188-29.44v-9.68C34.631 54.814 0 88.685 0 88.685s19.614 56.702 74.622 61.894V140.29c-40.367-5.078-54.188-49.568-54.188-49.568Zm54.188 29.107v9.422c-30.508-5.439-38.977-37.153-38.977-37.153s14.648-16.228 38.977-18.86v10.34c-.018 0-.031-.006-.046-.006-12.77-1.532-22.744 10.397-22.744 10.397s5.59 20.081 22.79 25.86Zm0-86.08v17.854a83.143 83.143 0 0 1 3.529-.207c45.465-1.532 75.089 37.29 75.089 37.29s-34.024 41.372-69.471 41.372c-3.249 0-6.29-.302-9.147-.808v11.04c2.443.31 4.976.493 7.619.493 32.986 0 56.84-16.847 79.939-36.785 3.83 3.067 19.508 10.529 22.731 13.795-21.962 18.388-73.147 33.21-102.165 33.21-2.797 0-5.483-.17-8.124-.424v15.513H200V33.749H74.622Zm0 39.49V61.282a92.52 92.52 0 0 1 3.529-.182c32.694-1.027 54.144 28.096 54.144 28.096s-23.168 32.176-48.009 32.176c-3.575 0-6.78-.574-9.665-1.544V83.577c12.729 1.538 15.29 7.16 22.942 19.916l17.019-14.35S102.159 72.85 81.216 72.85c-2.276-.001-4.455.159-6.594.388Z" fill="#77B900"/></svg>