<svg width="72.3" height="71" viewBox="0 0 72.3 71" fill="none" xmlns="http://www.w3.org/2000/svg">
<path fill-rule="evenodd" clip-rule="evenodd" d="M10 0H46C51.5229 0 56 4.47715 56 10V45C56 50.5229 51.5228 55 46 55H10C4.47715 55 0 50.5228 0 45V10C0 4.47715 4.47715 0 10 0ZM10 5C7.23858 5 5 7.23858 5 10V45C5 47.7614 7.23858 50 10 50H46C48.7614 50 51 47.7614 51 45V10C51 7.23858 48.7614 5 46 5H10Z" fill="black"/>
<path fill-rule="evenodd" clip-rule="evenodd" d="M26 16H62C67.5229 16 72 20.4772 72 26V61C72 66.5229 67.5228 71 62 71H26C20.4771 71 16 66.5228 16 61V26C16 20.4772 20.4772 16 26 16ZM26 21C23.2386 21 21 23.2386 21 26V61C21 63.7614 23.2386 66 26 66H62C64.7614 66 67 63.7614 67 61V26C67 23.2386 64.7614 21 62 21H26Z" fill="black"/>
</svg>
