<svg width="200" height="200" fill="none" xmlns="http://www.w3.org/2000/svg"><path fill-rule="evenodd" clip-rule="evenodd" d="m122.339 173.671-5.409 6.02v19.275l5.409-5.961v-19.334Z" fill="#D06868"/><path d="m122.341 173.729-20.234.022-7.21 5.961 22.035-.021 5.409-5.962Z" fill="url(#a)"/><path d="m122.341 173.729-20.234.022-7.21 5.961 22.035-.021 5.409-5.962Z" fill="url(#b)"/><path fill-rule="evenodd" clip-rule="evenodd" d="m116.932 179.632-22.035.019v19.334l22.035-.019v-19.334Z" fill="#A5597E"/><path fill-rule="evenodd" clip-rule="evenodd" d="M124.324 102.619c0-1.035-.816-5.38 3.485-5.496 3.436-.09 10.604 1.12 16.751-.454 6.538-1.672 13.245-7.902 14.051-7.18.807.725-7.05 10.308-16.998 12.987-5.82 1.566-13.609.933-17.289.143-1.435-.305.719.932-4.478.012Z" fill="#C1BBA7"/><path fill-rule="evenodd" clip-rule="evenodd" d="M72.403 193.263s4.005.595 7.01.593c2.084 0 4.139-.477 6.009-1.395.8-.399 1.2-3.179-.804-4.569-1.313-.912-.367-9.508-2.413-12.716-2.406-3.775 1.794-15.103 1.794-15.103l-13.816 7.954s3.015 15.695 3.215 17.088c.202 1.389-1.797 7.551-.995 8.146" fill="#4B2357"/><path fill-rule="evenodd" clip-rule="evenodd" d="M106.653 141.085s-1.242 5.743 1.248 12.123c2.493 6.383 8.151 8.433 8.307 11.437.07 1.335-.642 2.777-1.073 5.018-.536 2.799 1.343 5.527.146 7.829-1.049 2.013-14.808 1.411-13.134-1.841 1.672-3.253 2.14-7.785 2.206-8.575.063-.792-8.452-9.654-7.798-15.183.656-5.529-3.034-7.039-3.034-7.039l13.132-3.769Z" fill="#4B2A5C"/><mask id="c" mask-type="alpha" maskUnits="userSpaceOnUse" x="41" y="36" width="105" height="164"><path d="M126.201 55.328c-7.438-4.092-5.244-15.099-5.244-15.099s.4-2.782-1.604-3.18c-2.004-.394-2.606-.992-2.403 2.588.204 3.574-1.971 13.51 4.045 18.673 4.39 3.772 10.617 2.975 15.027 8.934 4.39 5.931-1.684 14.273-3.02 14.903-4.205 1.99-4.005 2.785-7.408 3.184-3.405.4-12.398-.588-17.402 1.205-5.009 1.792-3.629 3.579-8.433 6.561-4.807 2.987-12.817 6.964-16.22 10.741a13.124 13.124 0 0 0-2.749 4.865c-3.226.965-10.399 1.924-16.05 5.082-3.311 1.851-12.031 7.804-16.015 13.523-3.602 5.169-5.402 11.331-6.401 16.698-.616 3.32-.995 9.736-.992 13.71.002 3.914.571 7.032 1.267 10.875.308 1.712.595 4.685.595 6.599 0 1.914-.595 2.38-.595 3.711s.416 1.745.739 2.07c.32.324 0-1.005 0-1.357 0-.353.475-1.289.62-.986.144.304-.023.024-.15 1.545-.13 1.522 1.138 4.396 1.138 3.093s0-3.093.303-3.871c.301-.781.318-.183.318 0s-.078.616.117.527c.196-.09.541-.445.196-2.216-.346-1.77-.553-1.77-.675-2.516-.416-2.549-.412-3.833-.659-5.555-.404-2.782-.611-11.523-.411-14.505.306-4.561 1.481-5.09 1.999-5.962.823-1.392 1.639 8.412 5.22 17.085 3.034 7.35 7.215 7.347 8.82 8.937 1.603 1.587-1.398 8.544-.194 13.511 1.082 4.461-.395 7.354.007 8.546.4 1.19 5.21 2.578 8.815 2.578 3.605-.003 8.012-1 8.012-2.589-.005-4.173-1.606-3.378-2.009-5.96-.4-2.584 3.746-6.368 4.2-9.541.8-5.564-.002-6.757-1.208-10.929-.076-.265-.605-5.166-.605-5.166s6.613.99 11.018-1.992c7.285-4.937 10.006-13.123 10.006-13.123s2.994 3.297 4.812 4.767c2.61 2.109 3.802 2.314 5.209 2.777 1.803.595 6.587 1.788 6.587 1.788s-2.375 2.782-3.779 3.774c-.99.706-3.829 2.985-3.227 4.177.602 1.192 2.573 4.421 4.609 5.759 3.634 2.383 6.639 3.175 7.641 2.975 1-.2 2.175-6.756 3.575-7.949 1.401-1.194 4.028-5.171 3.826-7.156-.198-1.947-.607-9.539-5.616-12.316-2.721-1.51-6.107-2.366-7.417-7.549-1.204-4.767-8.819-7.942-8.819-7.942 2.413-3.425 6.458-7.879 7.535-9.048 1.169.577 2.253.951 3.452.894 2.182-.099 1.514-2.483.261-5.759l.362.592s3.883-2.344 5.204-4.969c1.402-2.785 5.002-9.144 8.006-10.141 3.468-1.147 9.613-4.376 9.011-5.569-.844-1.672-6.211-1.785-6.211-1.785s6.858-2.556 7.211-3.184c2.791-4.984 6.725-14.287 4.39-24.84-2.812-12.715-15.032-12.51-18.639-14.493h.002Z" fill="#fff"/></mask><g mask="url(#c)"><path d="M126.201 55.328c-7.438-4.092-5.244-15.099-5.244-15.099s.4-2.782-1.604-3.18c-2.004-.394-2.606-.992-2.403 2.588.204 3.574-1.971 13.51 4.045 18.673 4.39 3.772 10.617 2.975 15.027 8.934 4.39 5.931-1.684 14.273-3.02 14.903-4.205 1.99-4.005 2.785-7.408 3.184-3.405.4-12.398-.588-17.402 1.205-5.009 1.792-3.629 3.579-8.433 6.561-4.807 2.987-12.817 6.964-16.22 10.741a13.124 13.124 0 0 0-2.749 4.865c-3.226.965-10.399 1.924-16.05 5.082-3.311 1.851-12.031 7.804-16.015 13.523-3.602 5.169-5.402 11.331-6.401 16.698-.616 3.32-.995 9.736-.992 13.71.002 3.914.571 7.032 1.267 10.875.308 1.712.595 4.685.595 6.599 0 1.914-.595 2.38-.595 3.711s.416 1.745.739 2.07c.32.324 0-1.005 0-1.357 0-.353.475-1.289.62-.986.144.304-.023.024-.15 1.545-.13 1.522 1.138 4.396 1.138 3.093s0-3.093.303-3.871c.301-.781.318-.183.318 0s-.078.616.117.527c.196-.09.541-.445.196-2.216-.346-1.77-.553-1.77-.675-2.516-.416-2.549-.412-3.833-.659-5.555-.404-2.782-.611-11.523-.411-14.505.306-4.561 1.481-5.09 1.999-5.962.823-1.392 1.639 8.412 5.22 17.085 3.034 7.35 7.215 7.347 8.82 8.937 1.603 1.587-1.398 8.544-.194 13.511 1.082 4.461-.395 7.354.007 8.546.4 1.19 5.21 2.578 8.815 2.578 3.605-.003 8.012-1 8.012-2.589-.005-4.173-1.606-3.378-2.009-5.96-.4-2.584 3.746-6.368 4.2-9.541.8-5.564-.002-6.757-1.208-10.929-.076-.265-.605-5.166-.605-5.166s6.613.99 11.018-1.992c7.285-4.937 10.006-13.123 10.006-13.123s2.994 3.297 4.812 4.767c2.61 2.109 3.802 2.314 5.209 2.777 1.803.595 6.587 1.788 6.587 1.788s-2.375 2.782-3.779 3.774c-.99.706-3.829 2.985-3.227 4.177.602 1.192 2.573 4.421 4.609 5.759 3.634 2.383 6.639 3.175 7.641 2.975 1-.2 2.175-6.756 3.575-7.949 1.401-1.194 4.028-5.171 3.826-7.156-.198-1.947-.607-9.539-5.616-12.316-2.721-1.51-6.107-2.366-7.417-7.549-1.204-4.767-8.819-7.942-8.819-7.942 2.413-3.425 6.458-7.879 7.535-9.048 1.169.577 2.253.951 3.452.894 2.182-.099 1.514-2.483.261-5.759l.362.592s3.883-2.344 5.204-4.969c1.402-2.785 5.002-9.144 8.006-10.141 3.468-1.147 9.613-4.376 9.011-5.569-.844-1.672-6.211-1.785-6.211-1.785s6.858-2.556 7.211-3.184c2.791-4.984 6.725-14.287 4.39-24.84-2.812-12.715-15.032-12.51-18.639-14.493h.002Z" fill="url(#d)"/><mask id="e" mask-type="alpha" maskUnits="userSpaceOnUse" x="41" y="108" width="87" height="92"><path d="M48.725 127.308c-3.602 5.167-5.402 11.329-6.401 16.695-.616 3.323-.995 9.737-.992 13.711.002 3.916.517 8.278 1.21 12.121 1.005 5.564 2.211 11.924 3.01 11.721.391-.094-.16-6.053-1.008-11.921-.4-2.782-.607-11.523-.41-14.506.306-4.56 1.482-5.089 2-5.961.823-1.392 1.639 8.412 5.22 17.085 3.034 7.35 7.215 7.347 8.82 8.937 1.603 1.587-1.398 8.544-.194 13.511 1.082 4.461-.395 7.354.007 8.544.4 1.192 5.21 2.58 8.815 2.577 3.605 0 8.012-.997 8.012-2.587-.005-4.172-1.606-3.377-2.009-5.959-.4-2.584 3.746-6.368 4.2-9.541.8-5.564-.002-6.757-1.208-10.929-.076-.265-.605-5.166-.605-5.166s6.613.99 11.018-1.995c7.285-4.934 10.006-13.12 10.006-13.12s2.994 3.297 4.812 4.767c2.61 2.109 3.802 2.314 5.209 2.777 1.803.595 6.587 1.785 6.587 1.785s-2.375 2.785-3.779 3.777c-.99.706-3.829 2.985-3.227 4.177.602 1.19 2.573 4.421 4.609 5.759 3.634 2.383 6.639 3.175 7.641 2.975 1-.2 2.175-6.756 3.575-7.949 1.401-1.194 4.028-5.171 3.826-7.156-.198-1.947-.607-9.539-5.616-12.319-2.721-1.507-6.107-2.363-7.417-7.544-1.204-4.769-8.819-7.944-8.819-7.944 2.801-3.975 7.808-9.344 7.808-9.344l-31.562-15.975c-2.352 1.138-10.717 1.893-17.125 5.474-3.311 1.851-12.031 7.804-16.015 13.523h.002Z" fill="#fff"/></mask><g mask="url(#e)" fill-rule="evenodd" clip-rule="evenodd"><path d="M42.6 152.811s1.8-18.878 10.817-20.07c9.004-1.19 10.441-1.129 14.357 2.267 4.807 4.172 2.98 6.075 4.04 6.075 1.058 0 6.467-3.453 5.449-9.812-.986-6.15 5.721-12.605 19.982-12.025 14.261.579-16.386-4.19-16.386-4.19l-29.446 11.526S43.2 137.313 43 145.459l-.4 7.352Z" fill="#4F6486"/><path d="M91.904 167.121s-14.507-.089-14.41-1.961c.096-1.872.775-4.532.19-7.093-.118-.513 6.591 1.004 10.512-2.173 7.786-6.31.578-12.018.578-12.018s8.913 4.749 9.548 7.086c1.133 4.198-6.418 16.159-6.418 16.159" fill="#4C3D6A"/><path d="M42.442 169.736s.285-10.837.39-16.095c.194-9.736 1.694-16.164 5.196-21.265 3-4.374 14.653-.583 19.025-6.373 9.007-11.926 23.03-7.563 23.03-7.563l25.645 5.545s-6.204 11.199-9.431 9.748c-2.203-.992-7.21-3.577-7.21-3.577s1.272 2.578 4.026 3.772c6.413 2.778 8.619 5.16 10.023 9.135.588 1.66 2.911 4.72 4.546 5.409a15.6 15.6 0 0 1 4.045 2.457c.228.193-.609 1.186-.402 1.386.185.176 1.792-.729 1.959-.548.185.197-1.028 1.669-.864 1.872.165.197 1.736-.725 1.882-.525.204.282-1.559 1.298-1.392 1.576.117.202 1.77-.195 1.872 0 .421.823.677 1.599.783 2.274.399 2.582 1.806 4.37-1.997 11.726-2.784 5.385 11.813-7.956 11.813-7.956L99.887 94.588l-63.884 31.636 4.838 43.712 1.601-.2Z" fill="#4F728F"/><path d="M120.144 137.696s-6.924-18.377-6.825-20.265c.099-1.889-18.827 1.999-18.827 1.999l12.021 3.967c7.213 2.38-3 8.944-3 8.944l13.226 5.95 3.405-.595Z" fill="#4C416D"/><path d="M56.482 196.751s-11.345-40.232-11.248-42.12c.098-1.886-.598-15.221 1.596-10.331.802 1.787 5.024 24.039 13.838 25.027 5.173.581 1.886 13.887 2.615 16.691 1.808 6.951-2.394 13.91-2.394 13.91l-4.41-3.175.003-.002Z" fill="#4C3D6A"/><path d="M42.598 141.082c1.223-7.149 9.828-18.014 18.324-22.795 8.497-4.784 12.206-6.9 22.633-6.9 10.432 0-7.942-6.315-7.942-6.315l-31.792 13.215s-5.773 1.169-5.973 9.318l4.75 13.477Z" fill="#5191A6"/></g><g filter="url(#f)"><mask id="g" mask-type="alpha" maskUnits="userSpaceOnUse" x="80" y="36" width="66" height="90"><path d="M120.993 58.312c4.392 3.77 10.62 2.973 15.029 8.932 4.393 5.931-1.684 14.275-3.017 14.906-4.207 1.99-4.005 2.784-7.41 3.184-1.134.132-2.888.11-4.906.091-4.045-.042-9.157-.084-12.497 1.11-5.009 1.793-3.628 3.58-8.433 6.562-4.807 2.987-12.816 6.966-16.22 10.743-3.402 3.777-3.997 9.143-2.596 11.328 1.404 2.185 5.612 4.565 17.031 4.758 11.418.19 14.226 5.752 18.633 5.55 2.18-.099 1.514-2.483.258-5.757l.362.593s3.885-2.348 5.205-4.972c1.401-2.782 5.002-9.144 8.007-10.139 3.467-1.15 9.611-4.379 9.009-5.57-.844-1.67-6.208-1.784-6.208-1.784s6.858-2.558 7.208-3.184c2.791-4.986 6.726-14.287 4.391-24.841-2.813-12.717-15.032-12.51-18.64-14.494-7.436-4.093-5.242-15.099-5.242-15.099s.4-2.782-1.604-3.18c-.7-.138-1.23-.3-1.613-.3-.712 0-.919.564-.788 2.888.203 3.574-1.97 13.513 4.043 18.673l-.002.002Z" fill="#fff"/></mask><g mask="url(#g)" fill-rule="evenodd" clip-rule="evenodd"><path d="M120.993 58.312c4.392 3.77 10.62 2.973 15.029 8.932 4.393 5.931-1.684 14.275-3.017 14.906-4.207 1.99-4.005 2.784-7.41 3.184-1.134.132-2.888.11-4.906.091-4.045-.042-9.157-.084-12.497 1.11-5.009 1.793-3.628 3.58-8.433 6.562-4.807 2.987-12.816 6.966-16.22 10.743-3.402 3.777-3.997 9.143-2.596 11.328 1.404 2.185 5.612 4.565 17.031 4.758 11.418.19 14.226 5.752 18.633 5.55 2.18-.099 1.514-2.483.258-5.757l.362.593s3.885-2.348 5.205-4.972c1.401-2.782 5.002-9.144 8.007-10.139 3.467-1.15 9.611-4.379 9.009-5.57-.844-1.67-6.208-1.784-6.208-1.784s6.858-2.558 7.208-3.184c2.791-4.986 6.726-14.287 4.391-24.841-2.813-12.717-15.032-12.51-18.64-14.494-7.436-4.093-5.242-15.099-5.242-15.099s.4-2.782-1.604-3.18c-.7-.138-1.23-.3-1.613-.3-.712 0-.919.564-.788 2.888.203 3.574-1.97 13.513 4.043 18.673l-.002.002Z" fill="url(#h)"/><path d="M117.23 120.312s3.88-2.347 5.202-4.972c1.401-2.782 5.002-9.144 8.007-10.138 3.466-1.15 9.611-4.379 9.009-5.572-.844-1.67-6.208-1.782-6.208-1.782s6.857-2.56 7.208-3.185c2.791-4.986 6.62-9.423 2.892-19.576-2.408-6.554-15.434-14.891-19.041-16.876-7.436-4.092-5.821-15.696-5.821-15.696s0-3.377-2.003-3.774c-2.004-.395-1.204-.395-1 3.182.202 3.574-.494 11.227 5.52 16.389 4.39 3.77 10.918 5.856 15.33 11.813 4.391 5.933 10.825 12.314 4.821 19.073-3.081 3.469-14.218 9.746-17.821 11.14-3.196 1.235-8.814 1.992-10.016 1.794-5.251-.865-8.818-5.957-11.619-4.167-4.767 3.046 6.213 7.349 2.81 11.126-3.403 3.777-16.205 3.192-16.422 5.776-.197 2.385.605 3.775 12.022 3.968 11.417.19 12.099 6.846 16.506 6.646 4.407-.202-2.81-9.737-3.017-17.088-.204-7.352-8.819-8.537-8.819-8.537" fill="#4E567C"/><path d="M103.289 92.996c3.201-4.174 4.402-4.572 7.608-5.17 2.163-.404 8.348-.145 13.489-.627.325-.03.705 1.166 1.143 1.166.437 0-.059-2.293.423-2.382.487-.09 1.477 2.516 1.929 2.382.449-.136-.6-2.497 0-2.671.599-.174 1.803 2.187 2.149 2.006.346-.181-.68-2.006-.341-2.465.339-.456.63.69.687.659 5.554-2.987 7.76-7.493 7.955-10.802.198-3.38-3.809-8.144-3.809-8.144l-29.86-15.68s.687-11.624 12.61-13.322c4.207-.598-.44 6.547 4.417 15.098 2.511 4.421 8.619 3.615 14.469 7.448.405.266 1.042-.449 1.306-.252.258.198-.654.875.369 1.696 1.023.823 1.463-.55 1.846-.179.381.372-1.04 1.09 0 1.971 1.037.88 1.576-.299 1.926.141.353.44-.72.97-.259 1.482 1.447 1.623 1.496 2.192 2.187 4.97 2.171 8.713 1.289 6.843 4.215 10.328 5.538 6.597-25.831 16.112-25.831 16.112l37.055-5.785-2.26-7.91-51.09-94.79L77.261 116.86s5.401-11.331 12.41-15.905c8.466-5.526 10.413-3.781 13.616-7.956l.002-.002Z" fill="#5DA7B5"/><path d="m119.533 121.403-2.888-1.952s-1.917-7.427-2.928-9.769c-1.204-2.78-1.293-4.163-4.811-4.963-10.418-2.38-4.21-5.364-4.21-5.364s6.811 1.785 8.417 6.552c.675 2.004 1.206 7.352 4.209 7.349 3.006 0 4.005-4.572 6.608-6.161 2.604-1.595 4.405-3.582 6.809-3.982 2.403-.4 8.814-.4 8.814-.4l-20.02 18.69Z" fill="#4C416D"/><path d="M116.11 94.779c3.003-1.593 3.605-.6 5.406-1.792 1.802-1.195-6.613-3.175-9.416-1.586-1.604.91-2.286 6.64-.595 7.552 4.407 2.382 2.124-2.862 4.605-4.174Z" fill="#4E567C"/></g></g></g><path fill-rule="evenodd" clip-rule="evenodd" d="M77.809 164.624c1.331-5.746 1.801-6.545-1.82-10.776-2.415-2.822-3.754-4.923-4.02-6.301-.103 1.889 1.061 4.196 3.498 6.915 3.65 4.082.242 11.21 1.841 15.928 1.068 3.147 1.728 5.456 1.985 6.931a69.847 69.847 0 0 0-1.162-7.206c-.223-.995-.86-3.18-.322-5.494v.003Z" fill="#4F6486"/><path fill-rule="evenodd" clip-rule="evenodd" d="M125.528 101.526s5.369-.155 7.008-.6c2.204-.597 5.409-.8 5.409-2.19l-3.457-1.008-5.449 1.888-.195.527-3.316 1.383Z" fill="#4B2A5C"/><path fill-rule="evenodd" clip-rule="evenodd" d="M144.824 86.314c-4.897 3.928-11.778 6.17-14.818 7.759-3.805 1.99-1.4 4.97-.997 5.762 3.598-1.02 10.813-3.98 15.417-7.759 7.871-6.458 11.206-17.294 10.206-17.492a.208.208 0 0 0-.04-.005c-1.053 0-4.63 7.61-9.768 11.736" fill="url(#i)"/><path fill-rule="evenodd" clip-rule="evenodd" d="M129.008 99.835c-1.481-2.284-1.081-3.279-1.081-3.279s1.603 1.39 4.407.395c3.238-1.147 7.52-2.836 12.416-6.763 5.205-4.177 8.805-11.133 8.805-11.133s-1.258 6.561-9.129 13.021c-4.605 3.777-11.822 6.736-15.418 7.761" fill="#D3CBAF"/><path fill-rule="evenodd" clip-rule="evenodd" d="M114.1 93.029c0-.734.602-1.331 1.341-1.331.743 0 1.345.595 1.345 1.33a1.339 1.339 0 0 1-1.341 1.334 1.339 1.339 0 0 1-1.345-1.333" fill="#020408"/><path fill-rule="evenodd" clip-rule="evenodd" d="M116.108 92.391a.4.4 0 0 1-.771.154.4.4 0 1 1 .769-.151" fill="#D5B8D8"/><path fill-rule="evenodd" clip-rule="evenodd" d="m119.335.04 14.067 12.998-.74 7.46-14.91-13.772L119.335.04Z" fill="#FE9B7C"/><path fill-rule="evenodd" clip-rule="evenodd" d="m119.37 0-1.616 6.726-13.242 14.106 1.578-6.689L119.37 0Z" fill="#D06868"/><path fill-rule="evenodd" clip-rule="evenodd" d="m117.79 6.686 14.909 13.772-13.28 14.146-14.909-13.772 13.28-14.146Z" fill="#A5597E"/><defs><linearGradient id="a" x1="119.736" y1="176.579" x2="98.634" y2="185.719" gradientUnits="userSpaceOnUse"><stop stop-color="#FE9B7C"/><stop offset="1" stop-color="#D06868"/></linearGradient><linearGradient id="d" x1="78.925" y1="201.925" x2="144.886" y2="77.348" gradientUnits="userSpaceOnUse"><stop stop-color="#4C416C"/><stop offset="1" stop-color="#4F7995"/></linearGradient><linearGradient id="h" x1="119.528" y1="34.574" x2="88.749" y2="119.262" gradientUnits="userSpaceOnUse"><stop stop-color="#5190A5"/><stop offset="1" stop-color="#4E6586"/></linearGradient><linearGradient id="i" x1="149.049" y1="84.191" x2="129.759" y2="99.502" gradientUnits="userSpaceOnUse"><stop stop-color="#EFE8CD"/><stop offset="1" stop-color="#D3CAAF"/></linearGradient><radialGradient id="b" cx="0" cy="0" r="1" gradientUnits="userSpaceOnUse" gradientTransform="matrix(0 16.4871 -2.40487 0 95.148 184.626)"><stop stop-opacity=".5"/><stop offset="1" stop-opacity="0"/></radialGradient><filter id="f" x="77.237" y="33.749" width="71.312" height="94.733" filterUnits="userSpaceOnUse" color-interpolation-filters="sRGB"><feFlood flood-opacity="0" result="BackgroundImageFix"/><feColorMatrix in="SourceAlpha" values="0 0 0 0 0 0 0 0 0 0 0 0 0 0 0 0 0 0 127 0"/><feOffset/><feGaussianBlur stdDeviation="1.5"/><feColorMatrix values="0 0 0 0 0 0 0 0 0 0 0 0 0 0 0 0 0 0 0.5 0"/><feBlend in2="BackgroundImageFix" result="effect1_dropShadow"/><feBlend in="SourceGraphic" in2="effect1_dropShadow" result="shape"/></filter></defs></svg>