<svg xmlns="http://www.w3.org/2000/svg" width="91.62" height="78.507" viewBox="0 0 85.894 73.6"><path style="font-style:normal;font-variant:normal;font-weight:900;font-stretch:normal;font-size:80px;line-height:125%;font-family:'Source Sans Pro';-inkscape-font-specification:'Source Sans Pro Heavy';letter-spacing:0;word-spacing:0;fill:#5e5184;fill-opacity:1;stroke:none;stroke-width:1px;stroke-linecap:butt;stroke-linejoin:miter;stroke-opacity:1" d="m220.79 342.436-8.16 25.6h-.32l-6.56-24.64h-14.88l13.92 40c3.36 11.84 8.96 16.64 18.72 16.64 5.28 0 7.52-.64 10.4-1.76l-2.88-11.04c-1.92.8-3.36 1.28-5.92 1.28-2.88 0-5.92-1.44-6.4-4.32l-.16-.96 17.12-39.84z" transform="translate(-190.87 -326.436)"/><path style="font-style:normal;font-variant:normal;font-weight:900;font-stretch:normal;font-size:80px;line-height:125%;font-family:'Source Sans Pro';-inkscape-font-specification:'Source Sans Pro Heavy';letter-spacing:0;word-spacing:0;fill:#516a84;fill-opacity:1;stroke:none;stroke-width:1px;stroke-linecap:butt;stroke-linejoin:miter;stroke-opacity:1" d="m246.844 384.036 8.16-25.6h.32l6.56 24.64h14.88l-13.92-40c-3.36-11.84-8.96-16.64-18.72-16.64-5.28 0-7.52.64-10.4 1.76l2.88 11.04c1.92-.8 3.36-1.28 5.92-1.28 2.88 0 5.92 1.44 6.4 4.32l.16.96-17.12 39.84z" transform="translate(-190.87 -326.436)"/></svg>