<svg xmlns="http://www.w3.org/2000/svg" xmlns:xlink="http://www.w3.org/1999/xlink" viewBox="0 0 110 171.14"><defs><linearGradient id="linear-gradient" x1="5997.06" y1="2499.69" x2="5997.3" y2="2499.49" gradientTransform="matrix(231.6 0 0 -513.83 -1388912.25 1284491.15)" gradientUnits="userSpaceOnUse"><stop offset="0" stop-color="#22d7ff"/><stop offset="1" stop-color="#0052ff"/></linearGradient><linearGradient id="linear-gradient-2" x1="5999.4" y1="2501.71" x2="5999.54" y2="2501.55" gradientTransform="matrix(454.75 0 0 -346.97 -2728192.42 868029.07)" xlink:href="#linear-gradient"/><style>.cls-1{fill:#fff;fill-rule:evenodd}</style></defs><g id="Layer_2" data-name="Layer 2"><g id="Layer_1-2" data-name="Layer 1"><path style="fill:#0052ff;fill-rule:evenodd" d="M106.42 79.75 53.18 53.07v54.22l53.24-27.54z"/><path style="fill:#003ebf;fill-rule:evenodd" d="m59.96 103.78-6.78-40.3v43.81l6.78-3.51z"/><path style="fill:#002980;fill-rule:evenodd" d="M99.59 76.3 53.18 53.07v5.92L99.59 76.3z"/><path d="m3.2 170.58 48.95-23.74c.67-.41 1.05-.51 1.07-1.69V53.07C32.52 63.41 3.43 77.93.91 79.26c-.8.45-.91.82-.91 1.4v87.54c0 1.98.11 3.94 3.2 2.38Z" style="fill:url(#linear-gradient);fill-rule:evenodd"/><path d="M106.42 27.58v52.15S7.09 30 3.65 28.26c-2.29-1.2-2.29-2.33 0-3.62C5.76 23.46 46.07 3.37 52.25.27A1.72 1.72 0 0 1 54 .21L105.42 26a1.53 1.53 0 0 1 1 1.61Z" style="fill:url(#linear-gradient-2);fill-rule:evenodd"/></g></g></svg>