<svg width="200" height="200" fill="none" xmlns="http://www.w3.org/2000/svg"><path fill-rule="evenodd" clip-rule="evenodd" d="M90.418 9.124c-2.292.6-5.894 2-8.006 3.11-2.113 1.11-5.167 3.114-6.788 4.453-1.622 1.34-4.018 3.722-5.324 5.294-1.307 1.573-3.373 4.919-4.592 7.435-1.218 2.517-2.618 6.56-3.11 8.984-.493 2.425-.891 6.028-.886 8.007.006 1.98.391 5.4.856 7.602.467 2.202 1.834 6.063 3.04 8.58 1.207 2.516 3.52 6.167 5.141 8.115 1.62 1.947 4.558 4.677 6.528 6.067 1.97 1.39 16.155 9.79 31.523 18.665 15.367 8.875 28.311 16.279 28.763 16.452.709.273.795-4.602.628-35.93-.173-32.526-.296-36.6-1.197-39.678-.553-1.888-1.951-5.362-3.108-7.721-1.584-3.23-3.31-5.5-6.98-9.185-3.458-3.473-6.072-5.514-8.992-7.022-2.264-1.17-6.101-2.634-8.526-3.255-2.881-.736-6.211-1.117-9.607-1.096-3.181.02-6.815.455-9.364 1.123Zm17.155 19.301c1.484.658 3.96 2.377 5.502 3.82 1.735 1.623 3.431 3.981 4.45 6.189l1.647 3.565.381 37.54-1.62-.844c-.891-.464-7.668-4.345-15.059-8.624-7.39-4.279-14.508-8.671-15.816-9.76-1.368-1.14-3.112-3.45-4.106-5.44-.95-1.903-1.9-4.83-2.109-6.507-.259-2.072-.082-4.218.553-6.708.513-2.014 1.786-4.95 2.83-6.526 1.042-1.577 2.975-3.616 4.296-4.53 1.32-.916 3.74-2.143 5.375-2.727 2.143-.766 4.09-1.004 6.976-.853 2.408.126 5.077.686 6.7 1.405ZM56.61 98.354a9719.159 9719.159 0 0 1-29.736 17.235c-9.673 5.572-11.837 7.085-15.825 11.063-3.518 3.507-5.18 5.724-6.962 9.284-1.287 2.573-2.778 6.647-3.314 9.054-.709 3.187-.898 5.951-.698 10.173.203 4.249.691 7.015 1.83 10.366.855 2.513 2.49 6.112 3.635 7.996 1.145 1.885 3.658 5.004 5.585 6.931 1.926 1.927 5.128 4.456 7.114 5.62 1.986 1.164 5.565 2.803 7.954 3.643 3.861 1.356 5.17 1.524 11.778 1.513 6.555-.011 7.99-.198 12.132-1.578 2.717-.906 6.513-2.78 9.007-4.449 2.371-1.586 5.522-4.258 7.003-5.937 1.48-1.679 3.675-4.68 4.877-6.669 1.202-1.989 2.729-5.292 3.392-7.342.947-2.926 1.302-5.996 1.651-14.307.244-5.819.465-22.483.49-37.032.037-20.83-.105-26.44-.668-26.399-.393.03-9.053 4.905-19.245 10.835Zm99.58 17.194c-1.97.297-5.202 1.128-7.182 1.847-1.98.719-16.709 8.862-32.73 18.096-16.021 9.234-29.468 17.095-29.882 17.469-.597.54 5.164 4.092 28.02 17.276 15.825 9.128 29.887 17.16 31.249 17.85 1.363.69 4.427 1.752 6.811 2.363 2.654.678 6.258 1.108 9.298 1.108 3.068 0 6.647-.431 9.373-1.128 2.424-.62 6.261-2.087 8.525-3.26 2.87-1.487 5.609-3.614 9.043-7.022 4.022-3.993 5.353-5.781 7.256-9.751 1.351-2.817 2.739-6.898 3.3-9.703.697-3.482.871-6.214.621-9.723-.192-2.685-.77-6.296-1.285-8.025-.515-1.73-1.792-4.818-2.837-6.863-1.046-2.046-3.043-5.153-4.438-6.905-1.395-1.752-4.178-4.427-6.183-5.945-2.006-1.518-5.191-3.484-7.078-4.37-1.887-.886-4.864-1.981-6.615-2.432-1.75-.452-5.095-.957-7.433-1.122-2.338-.166-5.863-.058-7.833.24Zm-99.917 43.769c-.48 1.648-1.714 4.107-2.744 5.465-1.03 1.358-3.118 3.307-4.641 4.332-1.523 1.025-4.199 2.279-5.944 2.787a17.65 17.65 0 0 1-6.47.624c-1.813-.165-4.674-.93-6.358-1.701-1.684-.771-4.01-2.234-5.169-3.252-1.158-1.017-2.948-3.559-3.976-5.649-1.67-3.391-1.87-4.324-1.87-8.673 0-4.138.233-5.348 1.544-8.019.85-1.73 2.569-4.145 3.82-5.367 1.252-1.223 9.049-6.144 17.326-10.939l15.05-8.717.151 18.057c.125 14.81-.005 18.594-.719 21.052Zm113.55-23.371c1.438.706 3.68 2.194 4.979 3.307 1.394 1.193 3.061 3.478 4.066 5.573.937 1.953 1.869 4.878 2.072 6.501.246 1.963.059 4.165-.558 6.577-.509 1.995-1.593 4.637-2.408 5.872-.815 1.235-2.284 3.001-3.265 3.924-.982.925-3.151 2.321-4.82 3.103-1.67.783-4.535 1.559-6.366 1.725-1.831.166-4.624-.009-6.206-.388-1.794-.43-8.65-4.028-18.224-9.563-8.44-4.88-15.423-8.947-15.516-9.037-.094-.091 6.736-4.164 15.179-9.052 8.442-4.887 16.238-9.153 17.325-9.481 1.086-.326 4.034-.538 6.55-.469 3.396.092 5.249.455 7.192 1.408Z" fill="#5158FF"/></svg>