<svg width="200" height="200" fill="none" xmlns="http://www.w3.org/2000/svg"><path d="m158.084 58.24-14.899 14.898c24.379 24.379 24.379 63.657 0 87.584-24.379 24.38-63.657 24.38-87.585 0-24.379-24.379-24.379-63.657 0-87.584L99.618 29.12V0L41.38 58.24c-32.505 32.505-32.505 84.875 0 117.381 32.506 32.505 84.876 32.505 116.705 0 32.505-32.732 32.505-84.876 0-117.382Z" fill="#EE4C2C"/><path d="M128.964 54.628c5.984 0 10.835-4.852 10.835-10.836s-4.851-10.835-10.835-10.835c-5.984 0-10.835 4.851-10.835 10.835 0 5.984 4.851 10.836 10.835 10.836Z" fill="#EE4C2C"/></svg>