<svg width="33" height="33" fill="none" xmlns="http://www.w3.org/2000/svg"><g clip-path="url(#a)" fill="#FC3"><path d="M0 10.659a3.41 3.41 0 1 0 6.822 0 3.41 3.41 0 0 0-6.822 0Zm0 17.054a3.41 3.41 0 1 0 6.822 0 3.41 3.41 0 0 0-6.822 0Zm1.28-8.527a2.132 2.132 0 1 0 4.263 0 2.132 2.132 0 0 0-4.264 0Zm0-17.054a2.132 2.132 0 1 0 4.263 0 2.132 2.132 0 0 0-4.264 0Zm11.81 20.209a3.41 3.41 0 1 0 6.822 0 3.41 3.41 0 0 0-6.822 0Zm1.28 8.527a2.132 2.132 0 1 0 4.263 0 2.132 2.132 0 0 0-4.264 0Zm0-17.054a2.132 2.132 0 1 0 4.263 0 2.132 2.132 0 0 0-4.264 0Zm0-8.527a2.132 2.132 0 1 0 4.263 0 2.132 2.132 0 0 0-4.264 0Zm11.808 5.372a3.41 3.41 0 1 0 6.821 0 3.41 3.41 0 0 0-6.821 0Zm1.279-8.527a2.132 2.132 0 1 0 4.264 0 2.132 2.132 0 0 0-4.264 0Zm0 17.054a2.132 2.132 0 1 0 4.264 0 2.132 2.132 0 0 0-4.264 0Zm0 8.527a2.132 2.132 0 1 0 4.264 0 2.132 2.132 0 0 0-4.264 0Z"/></g><defs><clipPath id="a"><path fill="#fff" d="M0 0h33v33H0z"/></clipPath></defs></svg>