<svg xmlns="http://www.w3.org/2000/svg" viewBox="0 0 560 564.87"><g data-name="Layer 2"><g data-name="Layer 1"><path d="M544 366.31a279.85 279.85 0 0 0-22.23-224.83l-191.92-4.86v-2.4l184.73-4.68a280.52 280.52 0 0 0-87.37-87L279 38.83v-2.4l131.72-3.33A278.86 278.86 0 0 0 76.2 87.39l165.8 4.2V94L66.29 98.43A278 278 0 0 0 0 279c0 3 0 5.9.15 8.84a5.34 5.34 0 0 0 0 .59l66.16 1.68v2.4L.4 294.16a5.45 5.45 0 0 1 0 .59 277.42 277.42 0 0 0 36.87 123.63l110.37 2.79v2.4L42 426.24a280.1 280.1 0 0 0 105.49 98.82c3.44 1.87 6.92 3.64 10.45 5.34V298.67h26.76a7.83 7.83 0 0 1 7.84 7.84v237.78a280.39 280.39 0 0 0 172.87 0V306.51a7.83 7.83 0 0 1 7.84-7.84H400V530.4a257.3 257.3 0 0 0 10.34-5.27 279 279 0 0 0 73-56.25L414 467.12v-2.4l74.76-1.89a278.26 278.26 0 0 0 52.59-89l-99.76-2.53v-2.4Zm-105.31-75H119.26l-5.77-23.06h44.45v-24.72H167a24.68 24.68 0 0 1 24.67 24.69h70V235.3H92.1c-3.31-26.35-18.95-46.93-18.95-46.93C119.26 199.06 279 199.89 279 199.89s159.71-.83 205.79-11.52c0 0-15.61 20.58-18.92 46.93H296.26v32.93h70a24.69 24.69 0 0 1 24.7-24.69H400v24.69h44.47Z" style="fill:#431d93"/><path d="m0 552.07 4.36-1.38 4.36-1.23 8.72-2.46c5.81-1.5 11.62-3 17.44-4.25 11.62-2.7 23.25-4.95 34.87-7.09 23.25-4.17 46.49-7.29 69.74-9.82A1320.1 1320.1 0 0 1 279 518.76 1343.66 1343.66 0 0 1 418.45 526c23.25 2.55 46.49 5.66 69.74 9.82 11.62 2.13 23.25 4.37 34.87 7.05 5.81 1.29 11.62 2.74 17.44 4.23l8.72 2.42 4.36 1.22 4.36 1.37V556l-69.74 1-69.74.35-139.46.59-139.48-.65-69.74-.34L0 556Z" style="fill:#424240"/></g></g></svg>